<?xml version="1.0" encoding="UTF-8" standalone="no"?>
<svg
   xmlns:dc="http://purl.org/dc/elements/1.1/"
   xmlns:cc="http://creativecommons.org/ns#"
   xmlns:rdf="http://www.w3.org/1999/02/22-rdf-syntax-ns#"
   xmlns:svg="http://www.w3.org/2000/svg"
   xmlns="http://www.w3.org/2000/svg"
   xmlns:sodipodi="http://sodipodi.sourceforge.net/DTD/sodipodi-0.dtd"
   xmlns:inkscape="http://www.inkscape.org/namespaces/inkscape"
   inkscape:version="1.0 (4035a4fb49, 2020-05-01)"
   sodipodi:docname="HTL_Vektor_Farbe_auf_blau_komplett.svg"
   id="svg1242"
   xml:space="preserve"
   enable-background="new 0 0 708.66 425.2"
   viewBox="0 0 484.98003 205.432"
   height="205.43201"
   width="484.98001"
   y="0px"
   x="0px"
   version="1.1"><metadata
   id="metadata1248"><rdf:RDF><cc:Work
       rdf:about=""><dc:format>image/svg+xml</dc:format><dc:type
         rdf:resource="http://purl.org/dc/dcmitype/StillImage" /><dc:title></dc:title></cc:Work></rdf:RDF></metadata><defs
   id="defs1246">
	
	
	
	
	
	
</defs><sodipodi:namedview
   inkscape:current-layer="svg1242"
   inkscape:window-maximized="1"
   inkscape:window-y="-8"
   inkscape:window-x="1912"
   inkscape:cy="97.648006"
   inkscape:cx="239.71599"
   inkscape:zoom="1.4802586"
   fit-margin-bottom="0"
   fit-margin-right="0"
   fit-margin-left="0"
   fit-margin-top="0"
   showgrid="false"
   id="namedview1244"
   inkscape:window-height="1387"
   inkscape:window-width="2560"
   inkscape:pageshadow="2"
   inkscape:pageopacity="0"
   guidetolerance="10"
   gridtolerance="10"
   objecttolerance="10"
   borderopacity="1"
   bordercolor="#666666"
   pagecolor="#183f7c" />

<polygon
   transform="translate(-114.614,-114.952)"
   fill="#ffffff"
   points="209.761,190.668 178.944,114.952 114.614,114.952 176.05,276.91 "
   id="polygon1159" /><polygon
   transform="translate(-114.614,-114.952)"
   fill="#ffffff"
   points="261.726,245.681 261.726,278.556 304.75,278.556 304.75,233.78 375.391,233.78 375.391,278.556 418.417,278.556 418.417,190.653 375.391,190.653 375.391,199.225 304.75,199.225 304.75,155.083 297.129,155.083 296.535,156.605 "
   id="polygon1161" /><polygon
   transform="translate(-114.614,-114.952)"
   fill="#ffffff"
   points="375.031,155.083 375.031,186.562 423.18,186.562 423.18,278.556 466.199,278.556 466.199,186.562 513.976,186.562 513.976,155.083 "
   id="polygon1165" /><polygon
   transform="translate(-114.614,-114.952)"
   fill="#ffffff"
   points="599.567,278.556 599.594,247.082 513.864,247.082 513.864,190.653 470.847,190.653 470.847,278.556 "
   id="polygon1167" /><polygon
   transform="translate(-114.614,-114.952)"
   fill="#b2b2b2"
   points="244.389,278.556 292.641,155.083 228.16,155.083 179.895,278.556 "
   id="polygon1169" />

<g
   transform="translate(-114.614,-114.953)"
   id="g1847"><g
     id="education_on_a_higher_level"
     transform="translate(0,0.001)">
	<path
   fill="#ffffff"
   d="m 186.969,306.539 h -8.829 c 0,1.921 0.132,3.319 0.405,4.195 0.459,1.504 1.401,2.254 2.819,2.254 1.086,0 1.878,-0.485 2.38,-1.471 0.312,-0.669 0.471,-1.473 0.471,-2.41 h 2.629 c 0,1.314 -0.365,2.525 -1.096,3.634 -1.024,1.544 -2.538,2.317 -4.543,2.317 -2.025,0 -3.508,-0.722 -4.446,-2.16 -0.919,-1.381 -1.379,-3.531 -1.379,-6.454 0,-6.035 1.995,-9.053 5.984,-9.053 2.275,0 3.852,0.897 4.732,2.694 0.582,1.209 0.873,3.007 0.873,5.383 z m -8.739,-2.066 h 5.985 v -0.91 c 0,-2.737 -0.973,-4.104 -2.913,-4.104 -1.068,0 -1.87,0.488 -2.413,1.475 -0.44,0.814 -0.659,1.782 -0.659,2.912 z"
   id="path1172" />
	<path
   fill="#ffffff"
   d="m 205.325,292.255 v 22.361 h -2.504 v -2.069 h -0.128 c -0.188,0.674 -0.6,1.248 -1.244,1.729 -0.704,0.521 -1.493,0.783 -2.366,0.783 -3.626,0 -5.444,-2.947 -5.444,-8.834 0,-5.89 1.78,-8.833 5.333,-8.833 0.778,0 1.517,0.214 2.22,0.643 0.71,0.426 1.21,0.998 1.501,1.706 v -7.485 h 2.632 z m -8.925,13.97 c 0,2.171 0.208,3.771 0.622,4.794 0.485,1.188 1.3,1.787 2.447,1.787 1.334,0 2.263,-0.619 2.787,-1.854 0.397,-0.979 0.593,-2.557 0.593,-4.728 0,-4.385 -1.126,-6.577 -3.38,-6.577 -1.147,0 -1.962,0.594 -2.447,1.782 -0.414,1.027 -0.622,2.625 -0.622,4.796"
   id="path1174" />
	<path
   fill="#ffffff"
   d="m 224.18,297.831 v 16.785 h -2.502 v -1.973 h -0.064 c -0.337,0.756 -0.885,1.343 -1.646,1.771 -0.762,0.43 -1.571,0.645 -2.428,0.645 -1.919,0 -3.203,-0.641 -3.851,-1.91 -0.374,-0.732 -0.566,-1.872 -0.566,-3.415 v -11.902 h 2.631 v 11.587 c 0,2.255 0.825,3.388 2.477,3.388 0.833,0 1.567,-0.264 2.193,-0.787 0.752,-0.625 1.126,-1.494 1.126,-2.601 v -11.587 h 2.63 z"
   id="path1176" />
	<path
   fill="#ffffff"
   d="m 242.632,302.937 h -2.633 c 0,-0.944 -0.188,-1.721 -0.563,-2.35 -0.48,-0.754 -1.18,-1.128 -2.097,-1.128 -1.003,0 -1.753,0.384 -2.255,1.158 -0.692,1.087 -1.035,3.017 -1.035,5.797 0,1.816 0.135,3.183 0.407,4.102 0.479,1.649 1.41,2.473 2.787,2.473 1.838,0 2.756,-1.395 2.756,-4.198 h 2.633 c 0,1.613 -0.4,2.986 -1.193,4.139 -0.979,1.422 -2.421,2.13 -4.319,2.13 -2.029,0 -3.51,-0.722 -4.451,-2.16 -0.919,-1.381 -1.376,-3.531 -1.376,-6.454 0,-6.035 1.992,-9.053 5.981,-9.053 2.002,0 3.466,0.68 4.385,2.034 0.644,0.962 0.973,2.129 0.973,3.51"
   id="path1178" />
	<path
   fill="#ffffff"
   d="m 251.963,302.905 h -2.628 c 0,-1.922 0.443,-3.322 1.332,-4.198 0.883,-0.876 2.318,-1.315 4.307,-1.315 2.21,0 3.704,0.587 4.476,1.761 0.417,0.65 0.627,1.68 0.627,3.084 v 9.402 c 0,0.898 0.27,1.35 0.812,1.35 0.276,0 0.482,-0.073 0.626,-0.217 v 1.908 c -0.626,0.106 -1.134,0.156 -1.531,0.156 -0.71,0 -1.211,-0.091 -1.505,-0.283 -0.523,-0.298 -0.816,-0.931 -0.878,-1.908 h -0.06 c -0.418,0.731 -0.999,1.314 -1.737,1.757 -0.746,0.435 -1.513,0.657 -2.303,0.657 -3.05,0 -4.572,-1.631 -4.572,-4.886 0,-2.465 1.049,-4.013 3.162,-4.638 l 3.538,-1.063 c 0.878,-0.275 1.43,-0.598 1.661,-0.974 0.167,-0.25 0.251,-0.771 0.251,-1.566 0,-1.648 -0.898,-2.474 -2.694,-2.474 -1.922,0 -2.884,1.096 -2.884,3.289 z m 5.482,6.888 v -4.324 c -0.373,0.4 -1.095,0.763 -2.158,1.099 -1.257,0.398 -2.028,0.69 -2.321,0.877 -0.854,0.523 -1.283,1.41 -1.283,2.664 0,1.923 0.793,2.88 2.38,2.88 0.877,0 1.66,-0.319 2.351,-0.957 0.686,-0.635 1.031,-1.381 1.031,-2.239"
   id="path1180" />
	<path
   fill="#ffffff"
   d="m 268.816,297.831 v -4.89 h 2.63 v 4.89 h 2.917 v 2.064 h -2.917 V 310.7 c 0,0.69 0.12,1.178 0.36,1.457 0.243,0.285 0.693,0.426 1.362,0.426 0.209,0 0.6,-0.041 1.158,-0.124 v 2.188 c -0.685,0.129 -1.396,0.189 -2.129,0.189 -1.293,0 -2.201,-0.281 -2.723,-0.846 -0.439,-0.48 -0.658,-1.308 -0.658,-2.479 v -11.615 h -2.445 v -2.064 h 2.445 z"
   id="path1182" />
	<path
   fill="#ffffff"
   d="m 280.686,292.255 h 2.631 v 3.006 h -2.631 z m 0,5.576 h 2.631 v 16.785 h -2.631 z"
   id="path1184" />
	<path
   fill="#ffffff"
   d="m 290.493,306.225 c 0,-5.89 2.015,-8.833 6.044,-8.833 4.025,0 6.04,2.943 6.04,8.833 0,5.887 -2.015,8.834 -6.04,8.834 -4.029,0 -6.044,-2.948 -6.044,-8.834 m 5.98,6.763 c 2.234,0 3.352,-2.254 3.352,-6.764 0,-2.108 -0.206,-3.697 -0.627,-4.757 -0.523,-1.34 -1.431,-2.009 -2.725,-2.009 -2.152,0 -3.227,2.258 -3.227,6.766 0,4.51 1.075,6.764 3.227,6.764"
   id="path1186" />
	<path
   fill="#ffffff"
   d="m 309.597,314.616 v -16.785 h 2.509 v 1.973 h 0.063 c 0.332,-0.754 0.893,-1.346 1.689,-1.784 0.728,-0.419 1.524,-0.628 2.382,-0.628 1.917,0 3.204,0.638 3.85,1.912 0.375,0.731 0.567,1.868 0.567,3.412 v 11.9 h -2.635 v -11.587 c 0,-2.257 -0.823,-3.382 -2.474,-3.382 -0.833,0 -1.564,0.261 -2.19,0.782 -0.754,0.626 -1.128,1.492 -1.128,2.6 v 11.587 z"
   id="path1188" />
	<path
   fill="#ffffff"
   d="m 339.573,306.225 c 0,-5.89 2.018,-8.833 6.047,-8.833 4.029,0 6.043,2.943 6.043,8.833 0,5.887 -2.014,8.834 -6.043,8.834 -4.029,0 -6.047,-2.948 -6.047,-8.834 m 5.983,6.763 c 2.232,0 3.35,-2.254 3.35,-6.764 0,-2.108 -0.21,-3.697 -0.627,-4.757 -0.518,-1.34 -1.428,-2.009 -2.723,-2.009 -2.152,0 -3.228,2.258 -3.228,6.766 0,4.51 1.076,6.764 3.228,6.764"
   id="path1190" />
	<path
   fill="#ffffff"
   d="m 358.681,314.616 v -16.785 h 2.503 v 1.973 h 0.063 c 0.334,-0.754 0.897,-1.346 1.693,-1.784 0.73,-0.419 1.523,-0.628 2.38,-0.628 1.922,0 3.203,0.638 3.851,1.912 0.378,0.731 0.564,1.868 0.564,3.412 v 11.9 h -2.629 v -11.587 c 0,-2.257 -0.825,-3.382 -2.478,-3.382 -0.833,0 -1.564,0.261 -2.191,0.782 -0.75,0.626 -1.126,1.492 -1.126,2.6 v 11.587 z"
   id="path1192" />
	<path
   fill="#ffffff"
   d="m 391.694,302.905 h -2.63 c 0,-1.922 0.441,-3.322 1.329,-4.198 0.886,-0.876 2.321,-1.315 4.308,-1.315 2.211,0 3.705,0.587 4.479,1.761 0.416,0.65 0.627,1.68 0.627,3.084 v 9.402 c 0,0.898 0.272,1.35 0.814,1.35 0.269,0 0.479,-0.073 0.627,-0.217 v 1.908 c -0.627,0.106 -1.137,0.156 -1.536,0.156 -0.71,0 -1.21,-0.091 -1.5,-0.283 -0.526,-0.298 -0.816,-0.931 -0.883,-1.908 h -0.06 c -0.421,0.731 -0.998,1.314 -1.74,1.757 -0.74,0.435 -1.509,0.657 -2.303,0.657 -3.046,0 -4.57,-1.631 -4.57,-4.886 0,-2.465 1.053,-4.013 3.163,-4.638 l 3.538,-1.063 c 0.878,-0.275 1.432,-0.598 1.663,-0.974 0.165,-0.25 0.249,-0.771 0.249,-1.566 0,-1.648 -0.9,-2.474 -2.696,-2.474 -1.92,0 -2.879,1.096 -2.879,3.289 z m 5.484,6.888 v -4.324 c -0.377,0.4 -1.1,0.763 -2.165,1.099 -1.251,0.398 -2.025,0.69 -2.32,0.877 -0.854,0.523 -1.278,1.41 -1.278,2.664 0,1.923 0.794,2.88 2.377,2.88 0.877,0 1.66,-0.319 2.35,-0.957 0.688,-0.635 1.036,-1.381 1.036,-2.239"
   id="path1194" />
	<path
   fill="#ffffff"
   d="m 419.662,314.616 v -22.361 h 2.635 v 7.485 c 0.336,-0.668 0.902,-1.228 1.702,-1.675 0.8,-0.448 1.589,-0.674 2.366,-0.674 1.896,0 3.167,0.638 3.819,1.912 0.356,0.731 0.536,1.868 0.536,3.412 v 11.9 h -2.631 v -11.587 c 0,-2.257 -0.828,-3.382 -2.477,-3.382 -0.829,0 -1.564,0.261 -2.191,0.782 -0.753,0.626 -1.125,1.492 -1.125,2.6 v 11.587 h -2.634 z"
   id="path1196" />
	<path
   fill="#ffffff"
   d="m 438.709,292.255 h 2.63 v 3.006 h -2.63 z m 0,5.576 h 2.63 v 16.785 h -2.63 z"
   id="path1198" />
	<path
   fill="#ffffff"
   d="m 460.415,297.831 v 15.724 c 0,4.551 -1.903,6.829 -5.697,6.829 -3.384,0 -5.226,-1.4 -5.515,-4.197 h 2.631 c 0.126,1.417 1.022,2.13 2.691,2.13 1.464,0 2.434,-0.481 2.913,-1.441 0.231,-0.482 0.346,-1.254 0.346,-2.32 v -2.191 h -0.063 c -0.27,0.688 -0.76,1.238 -1.454,1.646 -0.705,0.405 -1.479,0.607 -2.337,0.607 -2.108,0 -3.58,-1.115 -4.415,-3.348 -0.521,-1.356 -0.785,-3.038 -0.785,-5.044 0,-5.89 1.831,-8.833 5.484,-8.833 0.876,0 1.669,0.262 2.38,0.783 0.647,0.502 1.064,1.095 1.252,1.784 h 0.061 v -2.128 h 2.508 z m -5.855,1.816 c -1.148,0 -1.968,0.594 -2.446,1.782 -0.416,1.026 -0.625,2.624 -0.625,4.795 0,4.09 1.013,6.139 3.037,6.139 1.317,0 2.245,-0.594 2.787,-1.785 0.42,-0.938 0.627,-2.389 0.627,-4.354 -10e-4,-4.384 -1.127,-6.577 -3.38,-6.577"
   id="path1200" />
	<path
   fill="#ffffff"
   d="m 468.215,314.616 v -22.361 h 2.629 v 7.485 c 0.337,-0.668 0.904,-1.228 1.704,-1.675 0.803,-0.448 1.589,-0.674 2.368,-0.674 1.895,0 3.165,0.638 3.819,1.912 0.356,0.731 0.533,1.868 0.533,3.412 v 11.9 h -2.629 v -11.587 c 0,-2.257 -0.824,-3.382 -2.475,-3.382 -0.836,0 -1.567,0.261 -2.191,0.782 -0.755,0.626 -1.13,1.492 -1.13,2.6 v 11.587 h -2.628 z"
   id="path1202" />
	<path
   fill="#ffffff"
   d="m 498.126,306.539 h -8.83 c 0,1.921 0.133,3.319 0.403,4.195 0.462,1.504 1.4,2.254 2.821,2.254 1.089,0 1.881,-0.485 2.38,-1.471 0.313,-0.669 0.472,-1.473 0.472,-2.41 H 498 c 0,1.314 -0.362,2.525 -1.097,3.634 -1.021,1.544 -2.536,2.317 -4.538,2.317 -2.026,0 -3.512,-0.722 -4.446,-2.16 -0.924,-1.381 -1.384,-3.531 -1.384,-6.454 0,-6.035 1.995,-9.053 5.985,-9.053 2.274,0 3.852,0.897 4.728,2.694 0.588,1.209 0.878,3.007 0.878,5.383 z m -8.738,-2.066 h 5.984 v -0.91 c 0,-2.737 -0.971,-4.104 -2.913,-4.104 -1.065,0 -1.869,0.488 -2.416,1.475 -0.434,0.814 -0.655,1.782 -0.655,2.912 z"
   id="path1204" />
	<path
   fill="#ffffff"
   d="m 505.393,314.616 v -16.785 h 2.633 v 2.504 c 0.933,-1.961 2.159,-2.943 3.678,-2.943 0.53,0 0.924,0.064 1.178,0.188 v 2.569 c -0.667,-0.086 -1.138,-0.126 -1.41,-0.126 -0.792,0 -1.538,0.313 -2.222,0.939 -0.816,0.771 -1.224,1.786 -1.224,3.039 v 10.615 z"
   id="path1206" />
	<rect
   x="531.10999"
   y="292.255"
   fill="#ffffff"
   width="2.631"
   height="22.361"
   id="rect1208" />
	<path
   fill="#ffffff"
   d="m 552.755,306.539 h -8.832 c 0,1.921 0.133,3.319 0.406,4.195 0.458,1.504 1.396,2.254 2.815,2.254 1.087,0 1.882,-0.485 2.384,-1.471 0.314,-0.669 0.467,-1.473 0.467,-2.41 h 2.636 c 0,1.314 -0.367,2.525 -1.099,3.634 -1.022,1.544 -2.54,2.317 -4.544,2.317 -2.023,0 -3.51,-0.722 -4.445,-2.16 -0.921,-1.381 -1.38,-3.531 -1.38,-6.454 0,-6.035 1.99,-9.053 5.981,-9.053 2.277,0 3.855,0.897 4.731,2.694 0.586,1.209 0.879,3.007 0.879,5.383 v 1.071 z m -8.741,-2.066 h 5.981 v -0.91 c 0,-2.737 -0.969,-4.104 -2.909,-4.104 -1.069,0 -1.87,0.488 -2.413,1.475 -0.441,0.814 -0.659,1.782 -0.659,2.912 z"
   id="path1210" />
	<polygon
   fill="#ffffff"
   points="561.494,297.831 564.622,311.3 564.687,311.3 567.82,297.831 570.702,297.831 566.161,314.616 563.154,314.616 558.611,297.831 "
   id="polygon1212" />
	<path
   fill="#ffffff"
   d="m 588.148,306.539 h -8.833 c 0,1.921 0.135,3.319 0.408,4.195 0.459,1.504 1.396,2.254 2.817,2.254 1.085,0 1.878,-0.485 2.38,-1.471 0.314,-0.669 0.472,-1.473 0.472,-2.41 h 2.631 c 0,1.314 -0.368,2.525 -1.096,3.634 -1.027,1.544 -2.536,2.317 -4.541,2.317 -2.027,0 -3.51,-0.722 -4.45,-2.16 -0.918,-1.381 -1.376,-3.531 -1.376,-6.454 0,-6.035 1.994,-9.053 5.98,-9.053 2.277,0 3.853,0.897 4.73,2.694 0.588,1.209 0.877,3.007 0.877,5.383 v 1.071 z m -8.738,-2.066 h 5.982 v -0.91 c 0,-2.737 -0.974,-4.104 -2.914,-4.104 -1.063,0 -1.869,0.488 -2.412,1.475 -0.437,0.814 -0.656,1.782 -0.656,2.912 z"
   id="path1214" />
	<rect
   x="595.57001"
   y="292.255"
   fill="#ffffff"
   width="2.631"
   height="22.361"
   id="rect1216" />
</g><g
     id="VÖCKLABRUCK"
     transform="translate(0,0.001)">
	<polygon
   fill="#ffffff"
   points="232.744,142.883 232.8,142.883 236.371,126.978 239.748,126.978 234.724,146.902 230.678,146.902 225.99,126.978 229.366,126.978 "
   id="polygon1219" />
	<path
   fill="#ffffff"
   d="m 243.542,136.94 c 0,-7.116 2.009,-10.354 6.585,-10.354 4.578,0 6.587,3.238 6.587,10.354 0,7.115 -2.009,10.352 -6.587,10.352 -4.576,0 -6.585,-3.237 -6.585,-10.352 m 2.931,-14.652 h 2.679 v 3.015 h -2.679 z m 7.059,14.567 c 0,-6.696 -1.508,-7.868 -3.405,-7.868 -1.898,0 -3.404,1.172 -3.404,7.868 0,6.865 1.506,8.037 3.404,8.037 1.897,0 3.405,-1.172 3.405,-8.037 m -2.428,-14.567 h 2.679 v 3.015 h -2.679 z"
   id="path1221" />
	<path
   fill="#ffffff"
   d="m 274.572,139.759 v 0.418 c 0,3.6 -1.45,7.116 -6.138,7.116 -5.023,0 -6.587,-3.237 -6.587,-10.353 0,-7.116 1.564,-10.353 6.613,-10.353 5.666,0 6.001,4.186 6.001,6.25 v 0.363 h -3.181 v -0.334 c 0,-1.842 -0.56,-3.962 -2.846,-3.878 -2.345,0 -3.405,1.45 -3.405,7.868 0,6.419 1.06,8.037 3.405,8.037 2.65,0 2.957,-2.958 2.957,-4.801 v -0.333 z"
   id="path1223" />
	<polygon
   fill="#ffffff"
   points="292.347,126.978 286.598,135.375 292.961,146.902 289.362,146.902 284.534,137.944 282.777,140.456 282.777,146.902 279.594,146.902 279.594,126.978 282.777,126.978 282.777,135.655 282.831,135.655 288.859,126.978 "
   id="polygon1225" />
	<polygon
   fill="#ffffff"
   points="296.505,126.978 299.687,126.978 299.687,144.224 307.389,144.224 307.389,146.902 296.505,146.902 "
   id="polygon1227" />
	<path
   fill="#ffffff"
   d="m 315.814,126.978 h 4.076 l 5.245,19.924 h -3.32 l -1.229,-4.884 h -5.831 l -1.286,4.884 h -3.318 z m 4.243,12.5 -2.289,-9.823 h -0.057 l -2.371,9.823 z"
   id="path1229" />
	<path
   fill="#ffffff"
   d="m 329.321,126.978 h 6.446 c 2.958,0 5.358,1.312 5.358,4.829 0,2.426 -0.949,3.904 -2.929,4.519 v 0.055 c 2.176,0.392 3.57,1.704 3.57,5.08 0,3.321 -2.399,5.442 -6.138,5.442 h -6.307 z m 5.693,8.398 c 1.924,0 2.93,-1.283 2.93,-3.153 0,-2.372 -1.425,-2.846 -3.21,-2.846 h -2.233 v 5.999 z m 0.641,9.125 c 1.898,0 2.931,-1.227 2.931,-3.515 0,-2.15 -1.284,-3.377 -3.126,-3.377 h -2.959 v 6.892 z"
   id="path1231" />
	<path
   fill="#ffffff"
   d="m 347.096,126.978 h 7.032 c 2.792,0 5.05,1.395 5.05,5.134 0,2.567 -1.144,4.55 -3.321,4.884 v 0.056 c 1.983,0.196 3.015,1.283 3.126,4.074 0.027,1.284 0.056,2.847 0.112,4.047 0.055,0.976 0.529,1.45 0.948,1.73 h -3.6 c -0.308,-0.363 -0.448,-0.977 -0.53,-1.759 -0.111,-1.199 -0.083,-2.316 -0.141,-3.767 -0.055,-2.177 -0.725,-3.125 -2.901,-3.125 h -2.595 v 8.651 h -3.181 v -19.925 z m 5.721,8.874 c 2.037,0 3.179,-1.228 3.179,-3.237 0,-2.121 -0.919,-3.237 -3.012,-3.237 h -2.707 v 6.474 z"
   id="path1233" />
	<path
   fill="#ffffff"
   d="m 367.801,126.978 v 14.288 c 0,2.511 1.005,3.627 2.933,3.627 1.896,0 2.899,-1.116 2.899,-3.627 v -14.288 h 3.182 v 14.036 c 0,4.606 -2.29,6.279 -6.081,6.279 -3.826,0 -6.114,-1.673 -6.114,-6.279 v -14.036 z"
   id="path1235" />
	<path
   fill="#ffffff"
   d="m 394.896,139.759 v 0.418 c 0,3.6 -1.45,7.116 -6.14,7.116 -5.023,0 -6.585,-3.237 -6.585,-10.353 0,-7.116 1.562,-10.353 6.613,-10.353 5.665,0 6.001,4.186 6.001,6.25 v 0.363 h -3.183 v -0.334 c 0,-1.842 -0.558,-3.962 -2.847,-3.878 -2.344,0 -3.404,1.45 -3.404,7.868 0,6.419 1.061,8.037 3.404,8.037 2.65,0 2.958,-2.958 2.958,-4.801 v -0.333 z"
   id="path1237" />
	<polygon
   fill="#ffffff"
   points="412.672,126.978 406.923,135.375 413.286,146.902 409.688,146.902 404.857,137.944 403.101,140.456 403.101,146.902 399.918,146.902 399.918,126.978 403.101,126.978 403.101,135.655 403.156,135.655 409.184,126.978 "
   id="polygon1239" />
</g></g>
</svg>
